PathFileType	4	(X/Y/Z)	E:\Qualisys_Data\Carbon_Farble_Plate\Data\Amateur_Runner\S14\T1\S14T1V22_c3d.trc
DataRate	CameraRate	NumFrames	NumMarkers	Units	OrigDataRate	OrigDataStartFrame	OrigNumFrames
200.000000	200.000000	4	39	mm	200.000000	0	304
Frame#	Time	LSHO			RSHO			LICST			RICST			LASIS			LHEEL			RASIS			LTROC			RTROC			SACR			LTH1			LSK4			LTH2			LTH3			RHM5			LSK2			LTH4			RTH1			LTOE			RTH2			RTH3			RTH4			LLEP			RLEP			LSK1			LSK3			RSK1			LHM5			RSK2			LFT1			RSK3			RSK4			LLME			RLME			RTOE			RHEEL			RFT1			RFT2			LFT2			
		X1	Y1	Z1	X2	Y2	Z2	X3	Y3	Z3	X4	Y4	Z4	X5	Y5	Z5	X6	Y6	Z6	X7	Y7	Z7	X8	Y8	Z8	X9	Y9	Z9	X10	Y10	Z10	X11	Y11	Z11	X12	Y12	Z12	X13	Y13	Z13	X14	Y14	Z14	X15	Y15	Z15	X16	Y16	Z16	X17	Y17	Z17	X18	Y18	Z18	X19	Y19	Z19	X20	Y20	Z20	X21	Y21	Z21	X22	Y22	Z22	X23	Y23	Z23	X24	Y24	Z24	X25	Y25	Z25	X26	Y26	Z26	X27	Y27	Z27	X28	Y28	Z28	X29	Y29	Z29	X30	Y30	Z30	X31	Y31	Z31	X32	Y32	Z32	X33	Y33	Z33	X34	Y34	Z34	X35	Y35	Z35	X36	Y36	Z36	X37	Y37	Z37	X38	Y38	Z38	X39	Y39	Z39	

1	0	-2637.228515625	1491.436767578125	-482.7171020507812	-2684.640380859375	1489.907836914062	-193.3990325927734	-2693.5390625	1038.847290039062	-473.5300598144531	-2674.972900390625	1037.141235351562	-202.8230133056641	-2660.973876953125	982.6246337890625	-451.7362670898438	-3294.041748046875	464.8160095214844	-340.5873413085938	-2651.649169921875	993.0814208984375	-223.0402374267578	-2826.78662109375	943.5147094726562	-486.4202880859375	-2789.194580078125	945.6663208007812	-166.4166870117188	-2821.67578125	1053.033569335938	-338.7631530761719	-2833.1494140625	711.1420288085938	-495.2256164550781	-3139.358642578125	532.9957275390625	-428.0758666992188	-2901.2314453125	740.6190795898438	-464.7142028808594	-2861.5185546875	617.3077392578125	-476.2290344238281	-2368.11376953125	150.6685638427734	-169.9369812011719	-3052.416748046875	575.4542846679688	-452.3811645507812	-2932.0751953125	647.7962646484375	-449.8084716796875	-2589.718017578125	734.4734497070312	-172.8105010986328	-3313.81396484375	209.7743377685547	-387.128662109375	-2663.579833984375	711.7247314453125	-156.2710723876953	-2559.499267578125	642.537841796875	-200.6814575195312	-2636.7119140625	615.4063110351562	-176.6186981201172	-2925.42919921875	573.35205078125	-465.4656066894531	-2589.946533203125	555.009033203125	-186.3695831298828	-3017.909423828125	501.670166015625	-461.4959411621094	-3110.106201171875	459.5873413085938	-443.4698486328125	-2540.554443359375	445.4040222167969	-179.1573333740234	-3343.322021484375	282.3514709472656	-433.9663391113281	-2623.717041015625	422.5288391113281	-182.7890777587891	-3311.87109375	448.4538879394531	-308.5487670898438	-2519.61669921875	343.6805419921875	-188.5785369873047	-2599.67626953125	328.5725708007812	-192.9300994873047	-3281.917236328125	421.3932189941406	-408.01416015625	-2512.175537109375	161.7466430664062	-207.1493988037109	-2303.916015625	194.4731140136719	-226.8664703369141	-2549.459228515625	113.9063110351562	-263.3019409179688	-2522.131591796875	95.10063934326172	-293.1720886230469	-2537.883544921875	90.68407440185547	-236.9747772216797	-3327.63720703125	462.5235595703125	-357.7802124023438
2	0.005	-2617.5791015625	1489.446899414062	-481.9787902832031	-2664.952392578125	1487.938232421875	-192.8067626953125	-2673.6162109375	1036.89208984375	-473.6529541015625	-2655.31396484375	1034.78466796875	-202.5548858642578	-2640.634521484375	980.7329711914062	-451.6369018554688	-3270.5166015625	465.4363098144531	-332.3959045410156	-2631.875	991.0088500976562	-223.6471710205078	-2805.83154296875	940.4330444335938	-487.2312622070312	-2769.325439453125	941.9844970703124	-166.4711761474609	-2802.16650390625	1050.358520507812	-338.8530883789062	-2810.542724609375	708.860595703125	-496.009033203125	-3116.61181640625	536.44482421875	-428.523681640625	-2879.808837890625	737.671142578125	-466.69189453125	-2838.283203125	614.2758178710938	-476.7338562011719	-2343.560546875	151.9550323486328	-171.0262451171875	-3028.437255859375	576.5238647460938	-452.9886779785156	-2908.909912109375	644.2798461914062	-450.6351318359375	-2571.611083984375	730.5137939453125	-171.7664031982422	-3302.213623046875	219.2964630126953	-385.3500366210938	-2647.010009765625	707.8360595703125	-155.2623443603516	-2542.136474609375	638.1522216796875	-199.8443603515625	-2620.313232421875	611.077880859375	-176.2269287109375	-2902.064453125	570.6599731445312	-466.6863098144531	-2572.51171875	551.5427856445312	-186.3536682128906	-2996.275146484375	500.8104553222656	-462.0719909667969	-3090.092041015625	462.8277893066406	-443.9003601074219	-2520.2314453125	443.0072937011719	-179.6462860107422	-3328.14892578125	293.2925415039062	-433.2578735351562	-2603.0537109375	419.0430603027344	-183.1024475097656	-3291.439208984375	458.6505432128906	-307.6645812988281	-2497.47802734375	342.1723022460938	-189.4302673339844	-2577.815673828125	325.5613708496094	-194.2060089111328	-3262.44921875	430.3562622070312	-407.5651550292969	-2487.102294921875	160.2222442626953	-207.7350311279297	-2279.75	197.1753540039062	-226.3673400878906	-2522.08447265625	111.1118316650391	-264.1605224609375	-2495.571533203125	93.4755401611328	-294.3043518066406	-2511.802734375	88.9527587890625	-238.6165008544922	-3306.3271484375	472.9406433105469	-358.9644775390625
3	0.01	-2597.359130859375	1487.274291992188	-481.3061218261719	-2645.170166015625	1485.197998046875	-192.4077606201172	-2653.2734375	1034.39501953125	-473.6138610839844	-2635.452880859375	1032.314453125	-202.2276306152344	-2620.554443359375	978.995849609375	-451.6279602050781	-3249.08984375	475.3285522460938	-331.9069213867188	-2611.70751953125	988.8534545898438	-223.5367279052734	-2784.67919921875	937.5429077148438	-487.7337646484375	-2748.592529296875	938.6824340820312	-166.6060028076172	-2782.39306640625	1047.247436523438	-338.6739501953125	-2787.51025390625	705.2318115234375	-496.1202697753906	-3093.560791015625	538.8942260742188	-430.4510498046875	-2857.398681640625	733.9019775390625	-467.529541015625	-2814.41943359375	610.4512939453125	-477.1940612792969	-2320.7392578125	151.6747283935547	-171.7553558349609	-3003.86572265625	576.29638671875	-454.1517333984375	-2885.456298828125	639.9561157226562	-451.2250671386719	-2555.118408203125	726.5797729492188	-172.0010528564453	-3289.27001953125	230.4024200439453	-385.388427734375	-2629.104248046875	704.1348266601562	-154.5363464355469	-2525.490234375	634.2836303710938	-199.7851257324219	-2603.8056640625	607.7664184570312	-175.3626403808594	-2877.506591796875	566.7062377929688	-467.04931640625	-2553.90966796875	548.8262329101562	-186.9596557617188	-2974.5908203125	500.3428344726562	-462.9212951660156	-3069.024658203125	464.5785522460938	-443.626220703125	-2500.463134765625	440.7832641601562	-180.4786987304688	-3312.47265625	304.3054809570312	-432.0519409179688	-2582.086669921875	415.40771484375	-184.06640625	-3270.434326171875	469.2660217285156	-307.5117492675781	-2475.9521484375	340.1183471679688	-190.4210052490234	-2556.294677734375	322.6015319824219	-195.3360900878906	-3242.83642578125	439.5507507324219	-407.4355773925781	-2463.91748046875	158.3680419921875	-209.6490173339844	-2256.85986328125	197.7440643310547	-226.7346801757812	-2500.770263671875	109.1158905029297	-266.541015625	-2471.090576171875	91.6760711669922	-296.2662048339844	-2488.8701171875	86.45198059082031	-240.2516326904297	-3283.806396484375	482.3644104003906	-357.7220458984375
4	0.015	-2577.371337890625	1484.474365234375	-480.3898315429688	-2625.5205078125	1482.39599609375	-191.3400115966797	-2633.9130859375	1032.4951171875	-473.8953247070312	-2616.3408203125	1029.158203125	-202.1216735839844	-2600.017822265625	976.6509399414062	-451.5997619628906	-3240.06201171875	490.6269836425781	-339.6703491210938	-2592.500244140625	986.054931640625	-223.5760040283203	-2764.63037109375	934.3804931640624	-488.8368835449219	-2728.61962890625	935.5172729492188	-166.7193450927734	-2762.5732421875	1043.830444335938	-338.252197265625	-2764.448486328125	701.7078247070312	-496.6563720703125	-3070.072998046875	542.7026977539062	-431.5873718261719	-2834.844482421875	729.50341796875	-468.1986999511719	-2790.341796875	606.5340576171875	-477.9111938476562	-2298.5634765625	151.0297088623047	-172.3895874023438	-2979.058837890625	576.1179809570312	-455.7209777832031	-2862.16943359375	635.3865966796875	-452.1646118164062	-2537.942138671875	722.9168701171875	-171.5421295166016	-3274.177490234375	240.0275115966797	-383.7742614746094	-2612.575439453125	699.7005615234375	-154.0210876464844	-2508.414306640625	630.9292602539062	-200.439208984375	-2585.346923828125	602.9838256835938	-175.6415710449219	-2853.514892578125	562.64404296875	-468.3190002441406	-2535.66796875	545.7821044921875	-187.4476013183594	-2951.908447265625	498.974853515625	-463.3924560546875	-3047.33984375	466.4300842285156	-443.3050537109375	-2479.416259765625	438.10693359375	-181.6556549072266	-3294.35791015625	315.17138671875	-431.1036987304688	-2561.78466796875	412.473388671875	-184.7964019775391	-3248.2626953125	478.943115234375	-306.5330810546875	-2453.730712890625	337.8869018554688	-191.4398345947266	-2535.410888671875	319.6982727050781	-196.2904357910156	-3221.718505859375	447.8026733398438	-406.0577392578125	-2441.76611328125	155.7795867919922	-210.8070678710938	-2235.10888671875	198.3984680175781	-227.0042114257812	-2477.290283203125	106.1683578491211	-267.7232360839844	-2447.783447265625	88.54977416992188	-297.2445373535156	-2465.869140625	83.19096374511719	-241.7941589355469	-3262.600341796875	493.5040283203125	-357.9320373535156
